<svg width="1200" height="900" xmlns="http://www.w3.org/2000/svg"><rect width="1200" height="900" fill="white" stroke="none" /><rect x="0" y="0" width="1200" height="80" fill="#f8f9fa" stroke="black" stroke-width="2" /><text x="20" y="35" font-family="Arial" font-size="20" font-weight="bold" fill="black">XYZ Corp Bug Tracker</text><text x="20" y="55" font-family="Arial" font-size="14" fill="#666">Public Bug Report Form</text><rect x="1050" y="25" width="120" height="30" fill="#6c757d" stroke="black" stroke-width="1" /><text x="1110" y="43" font-family="Arial" font-size="12" font-weight="bold" fill="white" text-anchor="middle">Back to Home</text><rect x="100" y="120" width="1000" height="720" fill="#ffffff" stroke="black" stroke-width="2" /><text x="120" y="160" font-family="Arial" font-size="24" font-weight="bold" fill="black">Report a Bug</text><text x="120" y="185" font-family="Arial" font-size="14" fill="#666">Help us improve our software by reporting bugs you encounter</text><rect x="120" y="210" width="960" height="500" fill="#f8f9fa" stroke="#ddd" stroke-width="1" /><text x="140" y="240" font-family="Arial" font-size="14" font-weight="bold" fill="black">Project *</text><rect x="140" y="250" width="400" height="35" fill="white" stroke="#ccc" stroke-width="1" /><text x="150" y="270" font-family="Arial" font-size="12" fill="#999">Select a project...</text><text x="580" y="240" font-family="Arial" font-size="14" font-weight="bold" fill="black">Bug Title *</text><rect x="580" y="250" width="480" height="35" fill="white" stroke="#ccc" stroke-width="1" /><text x="590" y="270" font-family="Arial" font-size="12" fill="#999">Brief description of the bug...</text><text x="140" y="320" font-family="Arial" font-size="14" font-weight="bold" fill="black">Bug Description *</text><rect x="140" y="330" width="920" height="100" fill="white" stroke="#ccc" stroke-width="1" /><text x="150" y="350" font-family="Arial" font-size="12" fill="#999">Detailed description of the bug, steps to reproduce, expected vs actual behavior...</text><text x="140" y="470" font-family="Arial" font-size="14" font-weight="bold" fill="black">Priority Level</text><circle cx="150" cy="495" r="8" fill="white" stroke="#007bff" stroke-width="2" /><rect x="165" y="485" width="80" height="20" fill="#007bff" stroke="none" /><text x="205" y="497" font-family="Arial" font-size="12" font-weight="bold" fill="white" text-anchor="middle">Low</text><circle cx="370" cy="495" r="8" fill="white" stroke="#ffc107" stroke-width="2" /><rect x="385" y="485" width="80" height="20" fill="#ffc107" stroke="none" /><text x="425" y="497" font-family="Arial" font-size="12" font-weight="bold" fill="white" text-anchor="middle">Medium</text><circle cx="590" cy="495" r="8" fill="white" stroke="#fd7e14" stroke-width="2" /><rect x="605" y="485" width="80" height="20" fill="#fd7e14" stroke="none" /><text x="645" y="497" font-family="Arial" font-size="12" font-weight="bold" fill="white" text-anchor="middle">High</text><circle cx="810" cy="495" r="8" fill="white" stroke="#dc3545" stroke-width="2" /><rect x="825" y="485" width="80" height="20" fill="#dc3545" stroke="none" /><text x="865" y="497" font-family="Arial" font-size="12" font-weight="bold" fill="white" text-anchor="middle">Critical</text><text x="140" y="550" font-family="Arial" font-size="16" font-weight="bold" fill="black">Reporter Information (Optional)</text><text x="140" y="580" font-family="Arial" font-size="14" font-weight="bold" fill="black">Your Name</text><rect x="140" y="590" width="400" height="35" fill="white" stroke="#ccc" stroke-width="1" /><text x="150" y="610" font-family="Arial" font-size="12" fill="#999">Enter your name (optional)...</text><text x="580" y="580" font-family="Arial" font-size="14" font-weight="bold" fill="black">Your Email</text><rect x="580" y="590" width="480" height="35" fill="white" stroke="#ccc" stroke-width="1" /><text x="590" y="610" font-family="Arial" font-size="12" fill="#999">Enter your email for updates (optional)...</text><text x="140" y="660" font-family="Arial" font-size="12" fill="#dc3545">* Required fields</text><rect x="140" y="680" width="150" height="45" fill="#28a745" stroke="black" stroke-width="1" /><text x="215" y="706" font-family="Arial" font-size="14" font-weight="bold" fill="white" text-anchor="middle">Submit Bug Report</text><rect x="310" y="680" width="120" height="45" fill="#6c757d" stroke="black" stroke-width="1" /><text x="370" y="706" font-family="Arial" font-size="14" font-weight="bold" fill="white" text-anchor="middle">Clear Form</text><rect x="120" y="750" width="960" height="60" fill="#d4edda" stroke="#c3e6cb" stroke-width="1" stroke-dasharray="5,5" /><text x="140" y="775" font-family="Arial" font-size="14" font-weight="bold" fill="#155724">Success Confirmation Area</text><text x="140" y="795" font-family="Arial" font-size="12" fill="#155724">Bug report submitted successfully! Bug ID: #12345 | Option to report another bug</text></svg>