<svg width="1200" height="800" xmlns="http://www.w3.org/2000/svg"><rect width="1200" height="800" fill="white" stroke="none" /><rect x="0" y="0" width="1200" height="60" fill="#f8f9fa" stroke="black" stroke-width="2" /><text x="20" y="35" font-family="Arial" font-size="16" font-weight="bold" fill="black">Bug Tracker - Admin Dashboard</text><rect x="1050" y="15" width="80" height="30" fill="#e9ecef" stroke="black" stroke-width="1" /><text x="1070" y="33" font-family="Arial" font-size="12" fill="black">User Info</text><rect x="1140" y="15" width="50" height="30" fill="#dc3545" stroke="black" stroke-width="1" /><text x="1155" y="33" font-family="Arial" font-size="12" fill="white">Logout</text><rect x="0" y="60" width="250" height="740" fill="#f1f3f4" stroke="black" stroke-width="2" /><text x="20" y="90" font-family="Arial" font-size="16" font-weight="bold" fill="black">Navigation</text><rect x="20" y="110" width="210" height="40" fill="#007bff" stroke="black" stroke-width="1" /><text x="30" y="135" font-family="Arial" font-size="14" fill="white">Dashboard</text><rect x="20" y="160" width="210" height="40" fill="#ffffff" stroke="black" stroke-width="1" /><text x="30" y="185" font-family="Arial" font-size="14" fill="black">Bug Management</text><rect x="20" y="210" width="210" height="40" fill="#ffffff" stroke="black" stroke-width="1" /><text x="30" y="235" font-family="Arial" font-size="14" fill="black">User Management</text><rect x="20" y="260" width="210" height="40" fill="#ffffff" stroke="black" stroke-width="1" /><text x="30" y="285" font-family="Arial" font-size="14" fill="black">Project Management</text><rect x="250" y="60" width="950" height="740" fill="#ffffff" stroke="black" stroke-width="2" /><rect x="270" y="80" width="910" height="30" fill="#f8f9fa" stroke="black" stroke-width="1" /><text x="280" y="98" font-family="Arial" font-size="12" fill="black">Home &gt; Dashboard</text><text x="280" y="140" font-family="Arial" font-size="18" font-weight="bold" fill="black">Statistics Overview</text><rect x="280" y="160" width="280" height="120" fill="#e3f2fd" stroke="black" stroke-width="2" /><text x="300" y="185" font-family="Arial" font-size="14" font-weight="bold" fill="black">Total Bugs Count</text><rect x="300" y="200" width="240" height="60" fill="white" stroke="#ccc" stroke-width="1" /><rect x="580" y="160" width="280" height="120" fill="#e8f5e8" stroke="black" stroke-width="2" /><text x="600" y="185" font-family="Arial" font-size="14" font-weight="bold" fill="black">Active Users Count</text><rect x="600" y="200" width="240" height="60" fill="white" stroke="#ccc" stroke-width="1" /><rect x="880" y="160" width="280" height="120" fill="#fff3e0" stroke="black" stroke-width="2" /><text x="900" y="185" font-family="Arial" font-size="14" font-weight="bold" fill="black">Active Projects Count</text><rect x="900" y="200" width="240" height="60" fill="white" stroke="#ccc" stroke-width="1" /><text x="280" y="310" font-family="Arial" font-size="18" font-weight="bold" fill="black">Quick Actions</text><rect x="280" y="320" width="880" height="200" fill="#f8f9fa" stroke="black" stroke-width="2" /><rect x="320" y="380" width="200" height="50" fill="#28a745" stroke="black" stroke-width="1" /><text x="420" y="408" font-family="Arial" font-size="12" font-weight="bold" fill="white" text-anchor="middle">Create New User</text><rect x="600" y="380" width="200" height="50" fill="#17a2b8" stroke="black" stroke-width="1" /><text x="700" y="408" font-family="Arial" font-size="12" font-weight="bold" fill="white" text-anchor="middle">Create New Project</text><rect x="880" y="380" width="200" height="50" fill="#6f42c1" stroke="black" stroke-width="1" /><text x="980" y="408" font-family="Arial" font-size="12" font-weight="bold" fill="white" text-anchor="middle">View All Bugs</text></svg>