<svg width="1200" height="800" xmlns="http://www.w3.org/2000/svg"><rect width="1200" height="800" fill="white" stroke="none" /><rect x="0" y="0" width="1200" height="60" fill="#f8f9fa" stroke="black" stroke-width="2" /><text x="20" y="35" font-family="Arial" font-size="16" font-weight="bold" fill="black">Bug Tracker - Tester Dashboard</text><rect x="1050" y="15" width="80" height="30" fill="#e9ecef" stroke="black" stroke-width="1" /><text x="1070" y="33" font-family="Arial" font-size="12" fill="black">User Info</text><rect x="1140" y="15" width="50" height="30" fill="#dc3545" stroke="black" stroke-width="1" /><text x="1155" y="33" font-family="Arial" font-size="12" fill="white">Logout</text><rect x="0" y="60" width="250" height="740" fill="#f1f3f4" stroke="black" stroke-width="2" /><text x="20" y="90" font-family="Arial" font-size="16" font-weight="bold" fill="black">Navigation</text><rect x="20" y="110" width="210" height="40" fill="#007bff" stroke="black" stroke-width="1" /><text x="30" y="135" font-family="Arial" font-size="14" fill="white">Dashboard</text><rect x="20" y="160" width="210" height="40" fill="#ffffff" stroke="black" stroke-width="1" /><text x="30" y="185" font-family="Arial" font-size="14" fill="black">Report Bug</text><rect x="20" y="210" width="210" height="40" fill="#ffffff" stroke="black" stroke-width="1" /><text x="30" y="235" font-family="Arial" font-size="14" fill="black">My Bugs</text><rect x="250" y="60" width="950" height="740" fill="#ffffff" stroke="black" stroke-width="2" /><rect x="270" y="80" width="910" height="30" fill="#f8f9fa" stroke="black" stroke-width="1" /><text x="280" y="98" font-family="Arial" font-size="12" fill="black">Home &gt; Dashboard</text><text x="280" y="140" font-family="Arial" font-size="18" font-weight="bold" fill="black">Personal Statistics</text><rect x="280" y="160" width="400" height="120" fill="#e8f5e8" stroke="black" stroke-width="2" /><text x="300" y="185" font-family="Arial" font-size="14" font-weight="bold" fill="black">Bugs Reported by Me</text><rect x="300" y="200" width="360" height="60" fill="white" stroke="#ccc" stroke-width="1" /><rect x="720" y="160" width="400" height="120" fill="#fff3e0" stroke="black" stroke-width="2" /><text x="740" y="185" font-family="Arial" font-size="14" font-weight="bold" fill="black">Bug Status Breakdown</text><rect x="740" y="200" width="360" height="60" fill="white" stroke="#ccc" stroke-width="1" /><text x="280" y="310" font-family="Arial" font-size="18" font-weight="bold" fill="black">Quick Actions</text><rect x="280" y="320" width="880" height="200" fill="#f8f9fa" stroke="black" stroke-width="2" /><rect x="400" y="380" width="200" height="50" fill="#28a745" stroke="black" stroke-width="1" /><text x="500" y="408" font-family="Arial" font-size="12" font-weight="bold" fill="white" text-anchor="middle">Report New Bug</text><rect x="700" y="380" width="200" height="50" fill="#17a2b8" stroke="black" stroke-width="1" /><text x="800" y="408" font-family="Arial" font-size="12" font-weight="bold" fill="white" text-anchor="middle">View My Bugs</text></svg>